<svg xmlns="http://www.w3.org/2000/svg" width="36" height="36" fill="none" viewBox="0 0 36 36">
  <g clip-path="url(#a)">
    <path stroke="#A668B8" stroke-width="3.819" d="m30.261 29.85-5.368-23.9c-.163-.723-1.126-.875-1.503-.237l-9.082 15.349a.818.818 0 0 0 .288 1.12l14.45 8.551a.818.818 0 0 0 1.215-.884Z"/>
    <path stroke="#01B88B" stroke-width="3.819" d="M5.335 11.746V30.12c6.605.315 14.644.647 15.468-8.963.165-1.922-.34-4.035-.824-5.9-.851-3.276-3.854-5.913-12.59-5.913"/>
    <path fill="#A668B8" d="m16.483 13.62 2.182-3.682 3.273 1.91-3.682 6.137-1.773-4.364Z"/>
  </g>
  <defs>
    <clipPath id="a">
      <path fill="#fff" d="M0 0h36v36H0z"/>
    </clipPath>
  </defs>
</svg>